<svg xmlns="http://www.w3.org/2000/svg" viewBox="0 0 111.89 161.79"><defs><style>.cls-1{fill:#ffe80f;}.cls-2{fill:#999;}.cls-3{fill:#fff;}</style></defs><title>Asset 1</title><g id="Layer_2" data-name="Layer 2"><g id="Layer_1-2" data-name="Layer 1"><path class="cls-1" d="M25.47,76.64S9,83.14,9.55,98.14L8.64,109,2.81,110.3S1.31,87,11.64,78.47c0,0,9.6-7.45,13.83-8.83S25.47,76.64,25.47,76.64Z"/><polygon class="cls-1" points="39.14 110.31 39.14 124.81 36.81 146.64 36.29 158.81 47.31 158.81 45.64 133.81 45.31 110.31 39.14 110.31"/><circle cx="41.97" cy="129.3" r="4.5"/><path d="M49.64,160.3s-18,3.33-26.67,0c0,0-1.33-11.33,13.33-13.67C36.31,146.64,49.64,146.64,49.64,160.3Z"/><polygon class="cls-1" points="70.93 110.31 70.93 124.81 73.26 146.64 73.78 158.81 62.76 158.81 64.43 133.81 64.76 110.31 70.93 110.31"/><circle cx="68.09" cy="129.3" r="4.5"/><path d="M60.43,160.3s18,3.33,26.67,0c0,0,1.33-11.33-13.33-13.67C73.76,146.64,60.43,146.64,60.43,160.3Z"/><rect x="23.9" y="65.8" width="7.81" height="16" rx="3.5" ry="3.5"/><path class="cls-1" d="M81.34,71.14s17.28-4.07,18.84-19l2.45-10.59,6-.48s-1.85,23.31-13.3,30.24c0,0-10.57,6-15,6.76S81.34,71.14,81.34,71.14Z"/><circle cx="105.34" cy="37.78" r="6.55" transform="translate(30.48 120.97) rotate(-67.74)"/><circle cx="100.77" cy="59.5" r="4.88" transform="translate(7.53 130.23) rotate(-67.74)"/><rect x="77.9" y="65.8" width="7.81" height="16" rx="3.5" ry="3.5"/><circle cx="6.55" cy="108.97" r="6.55"/><circle cx="9.55" cy="86.47" r="4.3"/><path class="cls-2" d="M55,64.3H34.64A7.55,7.55,0,0,0,29,71.64s.67,27.67,3,30.67c0,0,6,14.67,23,16.67,0,0,14.67-.67,20-10.33,0,0,4.67-4.33,5.67-22.67,0,0,7-23.33-8.67-21.67Z"/><path class="cls-2" d="M54.94,35.22c5.24-4.59,11.31-6.15,16.21-12.31H57.71v4h-5.3v-4H38.19C45.31,29.07,47.47,32.11,54.94,35.22Z"/><path class="cls-1" d="M72.65,24.25,55.88,39.52a1.39,1.39,0,0,1-1.87,0L37.2,24.25a22.74,22.74,0,1,0,35.45,0Z"/><path d="M36.83,22.92l.36.33.27-.33Z"/><path d="M73,22.92h-.63l.27.33Z"/><path d="M55.88,38.52,72.65,23.25l-.27-.33H67L55.87,33A1.39,1.39,0,0,1,54,33L42.83,22.92H37.46l-.27.33L54,38.52A1.39,1.39,0,0,0,55.88,38.52Z"/><circle class="cls-3" cx="45.82" cy="40.7" r="3.6"/><circle class="cls-3" cx="64.02" cy="40.7" r="3.6"/><path class="cls-3" d="M58.54,48a3.6,3.6,0,0,1-7.2,0h-2a5.57,5.57,0,1,0,11.14,0Z"/><rect class="cls-1" x="30.05" y="34.86" width="4.26" height="8.05" rx="1.79" ry="1.79"/><rect class="cls-1" x="75.53" y="34.86" width="4.26" height="8.05" rx="1.79" ry="1.79"/><path d="M71.81,0A4.89,4.89,0,0,0,67,4.09c-1.88.55-9.85,3.67-13.08,17.76h-1V26.2h4.35V21.85h-.95c.14-.8,2.21-11.46,10.81-15.57A4.89,4.89,0,1,0,71.81,0Z"/><path class="cls-3" d="M5.25,143.3"/><path class="cls-3" d="M46.13,130.18s-.87,3.46-4.33,3.42A6.3,6.3,0,0,0,46.13,130.18Z"/><path class="cls-3" d="M64,130.18s.88,3.46,4.33,3.42A6.3,6.3,0,0,1,64,130.18Z"/><path class="cls-3" d="M77.44,96.81S76.52,118,54.82,116.53C54.82,116.53,70.78,117.55,77.44,96.81Z"/></g></g></svg>